<svg width="165" height="237" viewBox="0 0 165 237" fill="none" xmlns="http://www.w3.org/2000/svg">
<path fill-rule="evenodd" clip-rule="evenodd" d="M145.456 134.121C142.523 120.222 132.123 109.437 118.135 104.064C115.446 102.543 112.84 96.015 109.227 94.8195C108.647 94.6279 109.562 96.153 109.227 96.2441C108.032 96.5689 106.693 96.6028 105.373 95.4297C103.015 93.333 102.275 87.2073 100.842 84.4388C93.2801 69.8374 74.4007 75.5505 71.8714 91.692C70.1078 92.8419 67.6148 93.8549 65.6951 94.7815C63.7183 95.7357 61.9795 98.0469 59.9423 98.8732C58.1246 99.6105 55.1297 99.0882 53.2981 99.7309C44.874 102.687 37.739 106.417 32.1453 113.975C30.9666 115.569 29.638 117.529 28.5654 119.139C23.0356 125.507 19.1948 132.645 15.6573 140.303C5.76028 162.78 3.06831 187.667 0.653099 211.885C0.708028 216.123 -2.10268 227.872 2.05444 229.904C1.80599 230.161 1.89599 230.679 2.35697 230.675C12.8977 230.568 23.414 231.512 33.7913 233.347C38.7981 234.232 43.7781 235.446 48.8781 235.645C59.4649 235.572 70.0137 233.798 80.5866 235.477C93.2969 235.477 108.744 235.106 122.884 234.563C136.099 234.054 149.385 235.202 162.437 232.954C163.47 232.79 163.975 231.53 163.758 230.627C162.227 225.045 161.475 219.3 160.616 213.587C160.787 209.923 160.481 206.097 159.126 202.684C155.585 179.643 151.045 156.752 145.456 134.121Z" fill="white"/>
<path fill-rule="evenodd" clip-rule="evenodd" d="M141.191 164.406C140.912 165.761 140.521 167.116 140.001 168.399C139.501 169.637 138.746 170.747 138.227 171.971C138.157 172.135 138.043 172.26 137.906 172.355L137.948 172.688L137.988 173.021C138.247 175.267 138.539 177.508 138.791 179.754L138.914 180.877C139.41 185.567 140.194 190.233 140.802 194.911C141.398 199.491 142.004 204.07 142.653 208.644C143.322 213.359 144.005 218.068 144.801 222.764C145.138 224.748 145.489 226.73 145.854 228.71L146.137 230.225C149.044 230.925 149.838 234.978 146.878 236.475C145.535 237.151 143.809 236.988 142.701 235.925C141.551 234.818 141.503 232.82 141.236 231.32L140.979 229.926C139.054 219.442 137.383 208.837 136.602 198.206C136.401 195.46 136.232 192.713 136.122 189.963C136.018 187.376 136.068 184.79 136.028 182.204L136.015 181.498C135.954 178.74 136.004 175.986 136.076 173.228C136.084 172.892 136.099 172.556 136.116 172.218C136.019 172.104 135.949 171.968 135.92 171.837L135.882 171.664C135.787 171.218 135.894 170.696 136.237 170.377C136.384 168.498 136.579 166.621 136.632 164.745C136.636 164.59 136.858 164.595 136.871 164.745C136.995 166.342 137.244 167.944 137.494 169.544C139.097 168.255 140.282 166.129 140.982 164.349C141.032 164.22 141.221 164.267 141.191 164.406ZM103.251 89.7108C103.517 90.9282 104.044 92.0211 104.749 93.0377C105.085 93.5238 105.467 93.9761 105.926 94.3544C106.319 94.6776 106.767 94.8889 107.185 95.1702C107.794 95.0749 108.429 95.3055 108.856 95.7533L108.789 95.0984C108.767 94.887 109.118 94.8447 109.159 95.0495C111.007 104.375 112.693 113.706 114.152 123.098L114.791 127.246L115.393 131.14C116.392 137.629 117.359 144.115 118.087 150.652C119.056 159.374 119.872 168.12 120.467 176.878C121.065 185.698 121.433 194.524 121.695 203.36C121.76 205.588 121.83 207.814 121.898 210.041L122.349 207.378C122.799 204.714 123.241 202.048 123.62 199.372C124.978 189.796 126.064 180.152 126.594 170.493C127.08 161.655 126.918 152.641 124.67 144.03C124.103 141.864 123.41 139.731 122.574 137.654C121.763 135.633 120.656 133.76 119.783 131.77C118.769 129.453 118.465 127.268 118.987 124.774C119.443 122.601 120.244 120.558 120.387 118.322C120.656 114.171 119.306 110.151 117.398 106.518C116.895 105.56 116.365 104.615 115.811 103.679C114.136 100.849 112.247 98.1226 110.287 95.5084C110.181 95.3689 110.405 95.2146 110.519 95.3287C112.306 97.0956 114.26 98.8329 115.868 100.763C116.65 101.701 117.413 102.658 118.135 103.641C126.062 104.966 132.873 109.905 137.529 116.428C142.813 123.829 145.486 132.738 147.463 141.511C149.663 151.26 151.518 161.099 153.493 170.897C155.538 181.036 157.572 191.174 159.63 201.31C160.653 206.342 161.675 211.375 162.696 216.409C163.213 218.958 163.756 221.501 164.325 224.041C164.616 225.343 164.929 226.643 165.199 227.949C165.503 229.422 165.22 230.364 164.223 231.447C163.856 231.848 163.275 231.842 162.818 231.629L162.676 231.561L162.538 231.495C161.973 231.217 161.53 230.929 161.179 230.312C160.792 229.633 160.731 228.881 160.598 228.126C160.353 226.738 160.11 225.349 159.865 223.959C159.499 221.879 159.101 219.805 158.695 217.732L156.662 207.371C156.12 204.608 155.577 201.846 155.031 199.085C153.081 189.211 151.129 179.338 149.177 169.466C147.303 159.987 145.644 150.443 143.511 141.018L143.389 140.487L143.266 139.957C141.358 131.833 138.692 123.974 133.856 117.089C130.133 111.795 124.963 107.067 118.875 104.674C119.304 105.292 119.716 105.922 120.109 106.564C122.576 110.597 124.378 115.384 123.956 120.186C123.749 122.532 122.857 124.837 122.941 127.202C123.02 129.303 124.319 131.148 125.217 132.976C127.256 137.119 128.73 141.521 129.681 146.038C131.589 155.107 131.583 164.438 130.925 173.644C130.211 183.652 128.855 193.657 127.311 203.567C126.518 208.65 125.464 213.691 124.657 218.766C124.258 221.268 123.715 223.764 123.239 226.254L123.013 227.443C122.886 228.104 122.754 228.762 122.602 229.413L122.509 229.802V229.872C122.504 230.352 122.373 230.749 122.162 231.066C121.873 231.994 121.513 232.899 121.036 233.767C120.791 234.211 120.436 234.46 120.049 234.552C119.66 235.441 118.779 236.126 117.728 236.122L103.891 236.069C95.8548 236.037 87.8182 235.984 79.7816 235.94C77.7536 235.93 75.7276 235.891 73.7015 235.839C71.8022 235.786 69.9811 235.558 68.1029 235.321C65.9816 235.055 64.8325 233.552 65.1494 231.432C65.2191 230.965 65.295 230.5 65.367 230.035C64.9445 230.174 64.4417 230.109 64.1015 229.777L63.7826 229.465C63.3406 229.027 62.9452 228.598 62.6649 228.014C62.3755 227.414 62.1407 226.78 61.8851 226.167C61.3337 224.848 60.7973 223.525 60.2752 222.196C59.2297 219.537 58.1839 216.868 57.2119 214.181C55.2874 208.862 53.5844 203.462 52.1036 198.001C49.4628 188.257 47.5527 178.326 46.3485 168.306L46.0606 165.918L45.9769 165.212C45.5202 161.329 45.1359 157.385 45.3175 153.509C45.4297 151.083 45.8055 148.638 46.7121 146.372C47.5485 144.282 48.8393 142.494 50.0668 140.625L50.2073 140.41L50.3485 140.189C51.4219 138.492 52.2761 136.718 52.3189 134.657C52.3623 132.565 51.7532 130.53 51.0723 128.572L50.9026 128.089L50.7887 127.77C49.34 123.723 47.6914 119.734 48.2351 115.331C49.0381 108.847 52.9675 103.62 57.9114 99.5896C53.5147 100.46 49.1628 102.181 45.3219 104.362C40.7858 106.94 36.702 110.343 33.1802 114.183C26.5252 121.441 21.7738 130.149 17.8846 139.14C13.8133 148.549 10.7943 158.408 8.51911 168.397C6.23109 178.442 4.6994 188.648 3.65341 198.895C3.13179 203.994 2.72172 209.107 2.38179 214.222C2.20855 216.842 2.07757 219.467 1.87475 222.084C1.67193 224.698 1.58087 227.353 0.942847 229.898C0.644959 231.083 -1.3642 231.204 -1.57948 229.898C-2.05725 226.981 -1.92373 223.964 -1.79038 221.01L-1.77828 220.742C-1.64708 217.8 -1.47596 214.86 -1.27335 211.92C-0.859055 205.911 -0.305745 199.911 0.41679 193.93C2.94989 172.934 7.62123 152.049 16.7839 132.884C21.098 123.857 26.6353 115.086 34.3381 108.568C38.0055 105.467 42.14 102.992 46.5957 101.2C50.5804 99.5959 54.6283 98.8372 58.8621 98.8393C60.9853 97.2119 63.2649 95.7937 65.5421 94.5825C65.6795 94.5087 65.8231 94.6862 65.7093 94.8004C65.6501 94.8574 65.5928 94.9164 65.5339 94.9716C65.7917 94.9885 66.0576 95.1089 66.2964 95.3604C67.1332 96.2373 67.8388 97.3345 68.4703 98.4734C69.4316 99.6741 70.3485 100.915 71.3078 102.102C72.8436 104.004 74.4154 105.879 76.0064 107.739C78.6784 110.865 81.4374 113.931 84.3146 116.875L84.7952 117.364C86.2865 118.875 87.7973 120.684 89.5612 121.88L89.6553 121.943C90.3995 122.428 90.9273 122.516 91.5619 121.792C92.1388 121.132 92.619 120.367 93.1127 119.64L93.2269 119.473C95.7473 115.811 98.0839 112.013 100.199 108.103C101.163 106.323 102.08 104.518 102.95 102.693L103.209 102.145C103.682 101.139 104.196 100.152 104.587 99.1159C104.677 98.8731 104.766 98.63 104.853 98.3891C103.522 97.5162 102.491 95.6267 102.117 94.1473C101.728 92.6108 101.925 91.0339 102.618 89.6286C102.748 89.3644 103.188 89.4297 103.251 89.7108ZM37.5918 152.15C37.4077 157.992 37.2959 163.84 37.021 169.678L36.9262 171.67C37.3548 172.148 37.6062 172.7 37.4055 173.457C37.3276 173.746 37.0971 174.008 36.8098 174.105L36.7202 175.958C36.3125 184.295 35.8345 192.614 34.9612 200.93C33.8689 211.337 32.6055 221.727 31.3445 232.115C31.1649 233.586 30.1422 234.752 28.5513 234.537C26.9417 234.319 26.2889 232.918 26.5001 231.457C27.3304 225.728 28.1288 219.994 28.8283 214.245L29.6248 207.696C30.6235 199.508 31.6457 191.323 32.8234 183.162C33.3156 179.751 33.8269 176.341 34.34 172.932L34.1607 172.7C33.4274 171.747 32.6689 170.815 31.9189 169.876C30.4783 168.067 29.0565 166.273 27.736 164.379C27.6703 164.284 27.8036 164.144 27.8985 164.216C29.7492 165.584 31.5008 167.046 33.2628 168.532L34.805 169.838C35.6924 163.948 36.5712 158.055 37.3548 152.15C37.3741 152.002 37.5959 151.992 37.5918 152.15ZM64.2135 96.2439C63.0999 97.2941 61.9614 98.3215 60.8393 99.3655L60.4283 99.7498L60.0193 100.136C58.0474 102.007 56.1581 103.954 54.5839 106.19C51.6938 110.297 49.9719 115.303 51.1738 120.317C52.1712 124.47 54.4593 128.234 55.074 132.49C55.3823 134.623 55.2325 136.766 54.4295 138.78C53.6097 140.835 52.2999 142.595 51.1231 144.449C48.5668 148.477 48.2182 152.898 48.4719 157.565C48.7381 162.439 49.2978 167.314 49.9888 172.144C51.3872 181.93 53.4957 191.614 56.2865 201.097C57.6832 205.846 59.333 210.494 60.9748 215.16C61.7921 217.483 62.7452 219.751 63.7274 222.008C64.245 223.196 64.7755 224.377 65.3142 225.556C65.1154 223.891 65.1154 222.181 65.0182 220.526C64.8788 218.155 64.7013 215.788 64.5386 213.419C64.2071 208.61 63.9114 203.798 63.6473 198.985C62.7114 181.824 62.0226 164.647 62.0731 147.458C62.0987 138.863 62.274 130.267 62.6438 121.68C62.8171 117.636 63.1527 113.596 63.4561 109.558L63.5205 108.692C63.7888 105.068 64.11 101.435 64.6612 97.8417C64.498 97.4733 64.3563 97.1002 64.2512 96.7175L64.2135 96.5736L64.241 96.5778C64.2156 96.4656 64.2071 96.3538 64.2135 96.2439ZM73.8431 81.4747C73.8661 81.3754 74.0077 81.3838 74.033 81.4747C74.6605 83.5882 74.4387 85.913 73.898 88.0392C73.6065 89.1911 73.1924 90.3091 72.6917 91.387L72.5165 91.7642C72.0875 92.6822 71.6044 93.628 70.769 94.2001C70.4206 94.4389 69.7971 94.4537 69.4485 94.2001L69.2707 94.0651C69.2415 94.0423 69.2126 94.019 69.1844 93.9951C68.8593 93.7224 68.6985 93.1201 68.8485 92.7227C69.2351 91.6977 70.1121 90.9453 70.7182 90.0323C71.2551 89.2207 71.7304 88.3647 72.1253 87.4749C72.9767 85.5495 73.3591 83.5058 73.8431 81.4747Z" fill="black"/>
<path fill-rule="evenodd" clip-rule="evenodd" d="M89.3104 1.45117C98.7692 1.45117 110.118 6.03844 111.083 6.13018L111.109 6.13158C111.617 6.13158 113.6 7.64341 117.06 10.6671L113.313 17.9785L113.616 18.2682C115.067 19.66 116.306 20.9286 117.284 21.9287C125.268 30.094 126.703 62.1537 124.821 73.3339C122.94 84.5142 119.455 95.4542 103.23 95.4542C87.0045 95.4542 68.9538 85.6947 66.1732 82.6554C64.3195 80.6292 62.2373 79.6585 59.9265 79.7433C59.8316 79.6234 59.7374 79.5039 59.6439 79.3847L59.304 79.3365C56.106 78.8732 53.8145 78.2495 52.4297 77.4658C49.7249 75.9349 46.7518 67.8868 46.7518 66.1139C46.7518 64.3588 42.3125 51.5906 42.2237 50.2394L42.2224 50.202C42.2224 49.0725 36.4229 43.8801 36.4229 42.2311C36.4229 40.5821 35.2539 40.6822 36.4229 34.8714L36.7625 33.1643C38.0065 26.9776 40.4413 16.7332 49.7249 12.2816C59.9265 7.38988 79.7561 1.45117 89.3104 1.45117Z" fill="white"/>
<path fill-rule="evenodd" clip-rule="evenodd" d="M48.1501 12.0517C53.238 6.64923 82.1229 -1.70714 96.7366 0.0642112L97.175 0.121002C98.3412 0.268948 99.4905 0.492979 100.625 0.797324C104.291 1.65393 108.078 2.95098 111.108 5.11754C113.637 6.88992 121.615 9.78436 119.263 14.421C120.135 16.0735 120.461 18.1152 119.871 19.7428C119.797 20.305 119.624 20.8228 119.402 21.3596C121.265 24.1095 122.74 27.2193 123.934 30.1771C126.02 37.6211 127.318 45.3679 127.509 52.9628C128.141 67.3921 126.56 84.6279 113.997 93.9586C106.408 99.8712 94.5206 100.07 85.9924 92.7389C85.5084 92.166 83.2324 90.6197 83.9919 90.3486C84.218 90.5874 84.4504 90.8199 84.687 91.0481C84.6762 91.0228 84.6741 90.9974 84.6785 90.9699L84.456 90.7683C84.0369 90.3804 83.4939 89.8179 84.1123 89.928C84.1396 89.9597 84.1694 89.9872 84.1987 90.0189C84.3297 90.0974 84.4287 90.1656 84.5056 90.2257L84.5452 90.2574L84.533 90.2446C84.1768 89.8646 83.9632 89.4771 84.4958 89.7246L84.5663 89.7589C84.8032 90.0083 85.0438 90.2471 85.2889 90.4796C85.2849 90.4521 85.2889 90.4246 85.3039 90.3951L85.0754 90.1742C84.8523 89.9556 84.8864 89.9546 84.9954 89.7779C84.5213 89.1132 85.4063 89.508 85.4685 89.7673C86.0222 89.6363 86.5083 90.6762 86.8649 90.803C102.499 102.827 125.186 92.1579 124.819 58.6536L124.813 57.9981C124.705 47.2849 123.804 36.2736 119.375 26.5757C118.944 25.6415 118.462 24.7327 117.932 23.8535C117.567 23.1941 117.176 22.5516 116.755 21.926C115.578 21.8309 114.416 21.6153 113.271 21.2814C112.878 21.1821 112.49 21.0722 112.101 20.9432C106.422 21.2531 100.87 21.5902 95.1751 21.9097L93.3964 22.0206C88.5723 22.3308 83.5832 22.8278 79.6903 25.8127C75.8706 28.5303 75.8532 33.8891 72.5835 36.8727C67.9208 40.0385 67.8868 42.8932 66.9889 47.5586C67.0554 51.0754 69.493 56.1853 65.0199 57.6653C65.7745 58.7418 64.7226 58.2246 64.6398 57.8471C64.6313 57.8492 64.6229 57.8513 64.6166 57.8513C65.289 59.1019 64.3005 58.3144 64.213 57.9126C64.1602 57.8978 64.1074 57.8598 64.0546 57.8069C64.7321 58.9026 63.6369 58.1354 63.7018 57.9359C62.3925 55.9228 59.698 55.6102 57.7987 56.1436C57.7755 56.2155 57.6912 56.2218 57.6384 56.1838C49.5623 57.9346 51.646 74.66 59.9222 73.0432C60.2765 72.9709 60.268 73.1411 60.3384 73.1573C60.1472 72.6552 60.6861 72.8595 60.6804 72.965L60.7133 72.9634C60.7393 72.9611 60.7286 72.9583 60.748 72.965C60.5632 71.938 61.6035 73.4259 61.5213 73.487C61.5532 73.468 61.5891 73.4574 61.6208 73.4532L61.585 73.3557C61.4123 72.8956 61.4271 73.0869 61.4283 72.8234C61.2986 72.4977 61.2891 72.6402 61.3195 72.428C61.7754 72.0746 61.91 73.1465 62.0621 73.225C61.8014 72.8614 62.0087 72.5645 62.2546 72.7619C64.1186 76.6841 66.5264 80.3694 69.6382 83.2726C69.9785 83.541 70.3229 83.8052 70.6797 84.0546C72.0033 85.2079 74.0336 85.9495 75.2727 86.9712C75.2727 86.9881 75.2644 87.0092 75.2518 87.0304L75.2801 87.056L75.3088 87.0832L75.7398 87.2903C75.8666 87.3981 75.9806 87.5186 76.0818 87.6517C76.1898 87.7764 76.2847 87.9138 76.3651 88.0596C76.4053 88.2372 76.3166 88.3111 76.1475 88.2351C76.0734 88.2097 75.9997 88.1801 75.9257 88.1526C75.9299 88.159 75.9318 88.1632 75.9363 88.1674C75.9605 88.2041 76.1246 88.5847 75.9355 88.5228L75.913 88.514C75.8093 88.476 75.706 88.4337 75.6046 88.3936C75.725 88.5436 75.8347 88.7064 75.9318 88.8437C76.0356 88.9515 76.0987 89.0783 76.1243 89.2221C76.1199 89.3024 76.0757 89.3362 75.9954 89.3256C75.8729 89.2855 75.7525 89.2432 75.6318 89.1988L75.6661 89.2643C75.7514 89.432 75.8725 89.7133 75.6574 89.6194C75.4734 89.5623 75.2961 89.4968 75.1187 89.425C75.1037 89.4545 75.0743 89.4651 75.0151 89.4376C74.4511 89.2369 73.906 88.9917 73.3842 88.7021C72.9257 88.3682 72.4628 88.0406 72.0025 87.7088C71.5692 87.4488 71.1509 87.1593 70.7518 86.8338C68.0801 85.1075 65.7411 82.9145 63.8856 80.4722C60.7823 83.1607 54.5775 80.5922 50.7394 78.4876C47.3446 76.6066 46.0102 73.1286 45.6652 69.3788C44.948 64.3305 40.824 62.6025 41.1109 51.5256C41.1046 51.5277 41.098 51.5277 41.0896 51.5277C40.9396 51.4833 40.794 51.4242 40.6567 51.3481C40.5151 51.2805 40.382 51.2001 40.2572 51.1029L40.103 50.8895C40.0229 50.8451 39.9511 50.7986 39.8961 50.7521L39.8676 50.7888C39.7775 50.8977 39.8381 50.7339 39.8433 50.7014L39.5754 50.3369C38.9401 49.4692 38.2432 48.4956 37.6755 47.7171L37.6576 47.7487C37.6448 47.7726 37.638 47.7899 37.644 47.7974C36.293 45.8555 35.0224 43.5099 34.6694 41.2392C34.2525 39.4901 34.4154 37.6877 34.779 36.0675C36.338 30.3938 41.4447 17.5547 48.1501 12.0517ZM84.8152 90.5162L84.7305 90.4407L84.805 90.534C84.844 90.5823 84.8839 90.6256 84.9489 90.6698C84.9447 90.655 84.9447 90.6402 84.9466 90.6233C84.9035 90.5904 84.8594 90.5543 84.8152 90.5162ZM96.672 2.91505C86.7618 2.06268 77.0146 4.24677 67.5578 6.89055L66.9055 7.07813C61.5282 8.61307 55.8424 9.99427 51.2982 13.2797C44.9494 18.1443 41.671 25.8831 38.81 33.0282C36.3118 38.3369 37.5889 44.323 41.3537 48.0299C41.7454 44.3463 42.4132 40.7704 43.4568 37.2233C43.6747 36.6692 43.5099 36.4876 43.9793 36.4153C44.6883 45.9743 41.1963 53.0368 48.1068 64.3656C51.1054 69.711 47.6342 73.6223 56.1018 76.4352L56.331 76.5228C58.0951 77.1887 60.0216 77.7143 61.7494 77.3421L61.5946 77.0902C61.4368 76.8308 61.3889 76.7048 61.6185 76.5939C61.6123 76.5812 61.6039 76.5685 61.5952 76.5537C61.4095 76.2029 61.2299 75.8478 61.0586 75.4885C60.9891 75.5118 60.9194 75.5287 60.8473 75.5477C60.894 75.6344 60.9001 75.721 60.7694 75.7506C60.3038 75.9104 59.8258 75.9744 59.3364 75.9444L59.2313 75.9366C58.6785 75.9028 58.3301 75.802 58.0185 75.7083C57.9151 75.6914 57.8116 75.6745 57.71 75.6534C56.7075 75.431 55.6463 74.8655 54.9595 74.305C47.1304 69.8565 47.9395 54.7134 57.5898 53.2819C57.7878 43.7475 62.3209 27.6621 69.8442 18.5767C76.6444 10.2197 95.2094 6.59762 108.125 7.87481C108.314 7.93716 108.502 8.00014 108.69 8.06376C110.683 8.24087 112.582 9.12896 114.576 9.54152C113.144 8.46807 111.52 7.75307 109.847 7.14544C106.514 5.1057 102.692 4.00203 99.0004 3.22362C98.2356 3.03552 97.4602 2.93196 96.672 2.91505ZM57.1481 60.9413C57.667 60.6593 57.6076 60.9315 57.727 60.8525C61.4592 60.5479 65.4837 63.8169 67.5699 66.542C67.4051 66.7132 66.9594 66.206 66.8812 66.1257C66.8706 66.1362 66.858 66.1447 66.8453 66.1489L66.9034 66.2309C67.749 67.4449 66.0727 66.0164 65.9157 65.722C65.8882 65.7368 65.8608 65.7452 65.8291 65.7389C65.962 65.8693 66.3678 66.2094 66.4375 66.4512L66.5451 66.5407C67.5597 67.4099 67.4755 68.0637 66.3237 66.8295C66.3509 66.8865 66.3615 66.9394 66.3425 66.9817L66.3821 67.0081C66.9485 67.4041 67.4144 68.5079 66.2305 67.3748C66.3537 68.2024 65.0573 66.6027 65.0157 66.6139C62.7725 64.8523 59.4697 63.1391 56.6558 62.9089L56.559 62.8978C56.0426 62.8314 55.7985 62.6782 55.9798 62.3404C55.3439 62.1891 55.4928 61.8758 55.7939 61.886C55.3454 61.5909 55.7491 61.3088 56.0094 61.4189C55.8304 60.9233 56.5481 61.2534 56.6136 61.1843C56.9861 60.6096 57.0864 61.089 57.1481 60.9413ZM49.3249 30.2215C51.1175 29.5646 56.4125 31.531 55.9889 34.1353C55.7366 34.7332 54.9055 35.0758 54.3214 34.7383L53.5589 34.226C52.2321 33.3371 51.0355 32.5576 49.6109 31.7823C48.8356 31.3974 48.5018 30.5804 49.3249 30.2215ZM59.5238 26.3514L58.8315 25.9007C55.0954 23.4546 49.8139 19.7482 59.1805 23.5829C60.248 24.0409 61.6665 24.3119 62.2489 25.3289C63.1639 27.2034 60.7559 27.3293 59.5238 26.3514ZM59.9436 15.3762C59.6438 14.2381 63.3742 15.5736 64.4601 15.9257L64.6255 15.9882C65.6819 16.382 66.8927 16.7473 67.5245 17.6592C68.2648 18.9193 66.7665 19.1803 65.8384 18.6111C63.9355 17.3671 61.8493 16.4285 59.9436 15.3762ZM69.4296 10.0745C67.3299 7.78064 72.9493 9.97808 73.7911 10.5881L73.8151 10.606C74.4432 11.0484 74.3158 12.0012 73.7257 12.281C72.0468 12.3129 70.8113 10.9129 69.4296 10.0745ZM78.9844 7.56129C75.6464 5.16141 80.0435 6.30291 81.5707 7.24342C82.6117 8.16174 81.5395 9.71199 78.9844 7.56129Z" fill="black"/>
<path fill-rule="evenodd" clip-rule="evenodd" d="M97.8348 69.8408C99.0167 67.8959 101.536 72.6601 101.803 73.4794C102.041 74.205 102.197 74.9484 102.277 75.7004C103.193 75.9059 104.144 75.9062 105.083 75.7262C106.478 75.4584 107.331 74.708 108.544 74.0636C109.382 73.6183 110.437 74.1405 110.873 74.8789C111.385 75.7481 111.059 76.6503 110.385 77.2982C109.107 78.527 106.593 78.8093 104.925 78.4829C103.969 78.2961 103.093 77.9375 102.319 77.4164C102.314 77.5136 102.311 77.6109 102.303 77.708L102.288 77.8764C102.16 79.2392 101.786 80.9528 100.728 81.8396C98.9921 83.2942 96.8504 80.4967 98.5366 79.0438L98.5889 79.0002C99.6371 78.153 99.8657 75.8799 99.8093 74.6279C99.7723 73.8107 99.6235 72.9831 99.3656 72.2048L99.3125 72.0498C99.2349 71.83 98.3884 69.7445 98.0825 70.0101L98.0679 70.0251C97.9418 70.1757 97.738 70.0002 97.8348 69.8408ZM107.271 58.8664C108.866 59.8365 111.297 62.0986 109.581 64.5036C107.561 66.6242 104.652 64.1928 103.219 63.0932C101.89 62.241 100.397 64.4328 101.63 65.4279C111.987 73.0989 116.19 59.1201 108.078 57.7258C107.185 57.5721 106.853 58.5663 107.271 58.8664ZM90.2353 49.8995C91.7944 49.6228 93.3916 50.0106 94.6818 50.9232L94.7796 50.9936C96.0226 51.903 97.4134 53.4999 96.7001 55.0674C96.4138 55.6968 95.5565 55.7955 95.0125 55.5102C94.1068 55.0351 93.9426 53.8661 93.1345 53.2191C92.4718 52.6889 91.5794 52.3672 90.7259 52.4448C88.7207 52.6269 87.4873 54.6054 86.8645 56.3104C86.7849 56.5285 86.4648 56.6132 86.3397 56.379C84.8712 53.6332 87.4706 50.3902 90.2353 49.8995ZM115.209 48.8632C118.196 48.617 121.692 51.7145 120.906 54.8683C120.528 56.3816 118.285 56.3383 117.886 54.8683C117.666 54.0595 117.688 53.3438 117.106 52.6722C116.626 52.1176 115.943 51.7955 115.209 51.8449C114.401 51.8995 113.655 52.3038 113.088 52.8721C112.576 53.3853 112.27 54.1362 111.74 54.5904C111.609 54.702 111.434 54.7092 111.305 54.5904C110.393 53.7486 110.94 51.9961 111.519 51.1173C112.347 49.8597 113.696 48.9881 115.209 48.8632ZM84.5478 44.306C86.4638 42.6093 89.9452 40.9707 92.5288 41.8058C94.0143 42.2857 94.6618 44.6801 93.0036 45.4391C91.0833 46.3179 88.8695 45.9603 86.915 46.8712C86.0943 47.254 85.3223 47.7322 84.7508 48.4337C84.3006 48.9866 83.8426 49.7141 83.1914 50.0328C83.0203 50.1167 82.7886 50.1188 82.6514 49.9633C81.2241 48.3481 83.3015 45.4095 84.5478 44.306ZM111.916 41.7215C113.1 41.3891 114.414 41.3958 115.617 41.6047C116.819 41.8135 118.04 42.3121 119.022 43.0393L119.136 43.1245C120.208 43.9324 121.487 45.108 121.418 46.5393C121.361 47.7345 120.104 48.5429 119.019 47.9164C118.135 47.4056 117.718 46.3822 116.969 45.7008C116.352 45.1384 115.626 44.695 114.851 44.3843C113.991 44.0392 113.129 43.8775 112.206 43.8621C111.495 43.8503 110.78 44.0836 110.082 44.1582C110.14 44.2761 109.588 44.2212 109.272 44.1166C109.038 44.0168 109.037 43.7207 109.118 43.5286C109.52 42.5769 110.985 41.9828 111.916 41.7215Z" fill="black"/>
</svg>
